<svg width="28" height="28" viewBox="0 0 28 28" fill="none" xmlns="http://www.w3.org/2000/svg">
<path d="M14.0001 0C6.28098 0 0 6.28098 0 14.0001C0 21.7192 6.28098 27.9999 14.0001 27.9999C21.7192 27.9999 27.9999 21.7192 27.9999 14.0001C27.9999 6.28098 21.7192 0 14.0001 0V0ZM14.0001 26.0908C7.33341 26.0908 1.90909 20.6665 1.90909 14.0001C1.90909 7.33341 7.33341 1.90909 14.0001 1.90909C20.6665 1.90909 26.0908 7.33341 26.0908 14.0001C26.0908 20.6665 20.6665 26.0908 14.0001 26.0908Z" fill="#C4C4C4"/>
<path d="M16.6206 13.6743C16.9718 13.1805 17.1818 12.5808 17.1818 11.9318C17.1818 10.4287 16.0758 9.18772 14.6363 8.95748V8.5909C14.6363 8.06399 14.2086 7.63635 13.6817 7.63635C13.1548 7.63635 12.7272 8.06399 12.7272 8.5909V8.909H11.1364C10.6095 8.909 10.1819 9.33664 10.1819 9.86355V18.1364C10.1819 18.6633 10.6095 19.0909 11.1364 19.0909H12.7272V19.409C12.7272 19.9359 13.1548 20.3635 13.6817 20.3635C14.2086 20.3635 14.6363 19.9359 14.6363 19.409V19.0909H14.7954C16.4626 19.0909 17.8182 17.7355 17.8182 16.0681C17.8182 15.0895 17.3435 14.2277 16.6206 13.6743ZM12.091 10.8181H14.159C14.7726 10.8181 15.2727 11.3184 15.2727 11.9318C15.2727 12.5452 14.7726 13.0455 14.159 13.0455H12.091V10.8181ZM14.7954 17.1818H12.091V14.9546H14.7954C15.4088 14.9546 15.9092 15.4547 15.9092 16.0681C15.9092 16.6817 15.4088 17.1818 14.7954 17.1818Z" fill="#C4C4C4"/>
</svg>
