<svg width="45" height="45" viewBox="0 0 45 45" fill="none" xmlns="http://www.w3.org/2000/svg">
<path d="M22.5001 0C10.0944 0 0 10.0944 0 22.5001C0 34.9058 10.0944 44.9999 22.5001 44.9999C34.9058 44.9999 44.9999 34.9058 44.9999 22.5001C44.9999 10.0944 34.9058 0 22.5001 0V0ZM22.5001 41.9317C11.7858 41.9317 3.06818 33.214 3.06818 22.5001C3.06818 11.7858 11.7858 3.06818 22.5001 3.06818C33.214 3.06818 41.9317 11.7858 41.9317 22.5001C41.9317 33.214 33.214 41.9317 22.5001 41.9317Z" fill="#F6AE2D"/>
<path d="M26.7118 21.9763C27.2762 21.1826 27.6136 20.2189 27.6136 19.1759C27.6136 16.7601 25.8361 14.7657 23.5226 14.3957V13.8066C23.5226 12.9597 22.8353 12.2725 21.9885 12.2725C21.1417 12.2725 20.4544 12.9597 20.4544 13.8066V14.3178H17.8979C17.051 14.3178 16.3638 15.0051 16.3638 15.8519V29.1475C16.3638 29.9943 17.051 30.6815 17.8979 30.6815H20.4544V31.1928C20.4544 32.0396 21.1417 32.7269 21.9885 32.7269C22.8353 32.7269 23.5226 32.0396 23.5226 31.1928V30.6815H23.7784C26.4578 30.6815 28.6365 28.5033 28.6365 25.8235C28.6365 24.2508 27.8736 22.8658 26.7118 21.9763ZM19.432 17.386H22.7556C23.7417 17.386 24.5455 18.1901 24.5455 19.1759C24.5455 20.1616 23.7417 20.9658 22.7556 20.9658H19.432V17.386ZM23.7784 27.6134H19.432V24.0339H23.7784C24.7642 24.0339 25.5683 24.8377 25.5683 25.8235C25.5683 26.8096 24.7642 27.6134 23.7784 27.6134Z" fill="#F6AE2D"/>
</svg>
