<?xml version="1.0"?>
<svg xmlns="http://www.w3.org/2000/svg" xmlns:xlink="http://www.w3.org/1999/xlink" xmlns:svgjs="http://svgjs.com/svgjs" version="1.1" width="512" height="512" x="0" y="0" viewBox="0 0 512 512" style="enable-background:new 0 0 512 512" xml:space="preserve" class=""><g><path xmlns="http://www.w3.org/2000/svg" d="m507.254 429.869-220.956-382.717c-13.488-23.332-47.108-23.33-60.594 0l-220.956 382.717c-13.49 23.336 3.376 52.478 30.297 52.478h441.912c26.961 0 43.769-29.175 30.297-52.478zm-266.046-267.017c0-8.287 6.707-14.994 14.994-14.994 8.277 0 14.994 6.707 14.994 14.994v171.378c0 8.287-6.717 14.994-14.994 14.994-8.287 0-14.994-6.707-14.994-14.994zm14.793 248.945c-10.016 0-18.132-8.117-18.132-18.132s8.117-18.142 18.132-18.142c10.016 0 18.132 8.126 18.132 18.142s-8.116 18.132-18.132 18.132z" fill="#f6ae2d" data-original="#000000" style="" class=""/></g></svg>
